<?xml version="1.0" standalone="no"?>
<!DOCTYPE svg PUBLIC "-//W3C//DTD SVG 20010904//EN"
 "http://www.w3.org/TR/2001/REC-SVG-20010904/DTD/svg10.dtd">
<svg version="1.0" xmlns="http://www.w3.org/2000/svg"
 width="350.000000pt" height="350.000000pt" viewBox="0 0 350.000000 350.000000"
 preserveAspectRatio="xMidYMid meet">

<g transform="translate(0.000000,350.000000) scale(0.100000,-0.100000)"
fill="#000000" stroke="none">
<path d="M1553 3300 c-41 -25 -83 -114 -83 -175 0 -48 -5 -52 -35 -31 -30 20
-101 28 -146 16 -31 -9 -43 -19 -59 -50 -25 -49 -25 -74 -2 -108 35 -51 34
-60 -6 -72 -20 -5 -45 -10 -54 -10 -9 0 -19 -4 -22 -9 -3 -5 -25 -18 -48 -29
-91 -43 -210 -138 -267 -212 -18 -23 -20 -24 -47 -10 -16 8 -31 17 -34 20 -20
20 -59 30 -117 30 -152 0 -254 -69 -308 -209 -24 -63 -28 -87 -27 -175 0 -74
4 -109 16 -131 9 -16 16 -36 16 -43 0 -7 7 -15 15 -18 8 -4 13 -10 10 -15 -9
-13 65 -81 120 -111 30 -17 48 -33 45 -40 -10 -28 -11 -231 -1 -241 6 -6 11
-23 11 -38 0 -43 43 -155 65 -171 12 -9 -7 -15 -60 -21 -22 -3 -58 -10 -80
-16 -22 -6 -49 -14 -60 -16 -31 -7 -75 -62 -75 -93 0 -31 25 -72 43 -72 7 0
23 -9 37 -20 14 -11 34 -20 45 -20 12 0 25 -4 30 -8 18 -15 80 -30 145 -37 69
-6 150 -24 150 -33 0 -3 -16 -20 -35 -39 -40 -38 -46 -82 -19 -122 16 -22 21
-23 103 -18 94 6 191 23 206 38 5 5 17 9 27 9 9 0 33 9 53 20 19 11 35 16 35
12 0 -4 6 1 13 10 9 11 18 14 27 8 11 -7 3 -20 -35 -59 -50 -51 -125 -163
-125 -188 0 -7 -4 -13 -8 -13 -4 0 -16 -27 -25 -60 -15 -51 -25 -65 -57 -85
-40 -25 -70 -73 -70 -110 0 -50 54 -115 94 -115 9 0 20 -8 25 -18 29 -53 185
-84 276 -54 44 14 48 14 57 -2 5 -9 27 -28 48 -41 38 -24 71 -32 160 -40 25
-2 74 -9 110 -15 104 -18 181 -23 204 -11 11 5 62 12 111 14 130 7 306 27 326
38 21 11 143 12 153 2 4 -5 31 -13 59 -19 44 -9 59 -7 95 8 48 20 113 77 143
125 48 77 76 202 49 218 -5 3 -10 13 -10 22 0 25 -63 102 -84 103 -13 0 -16 4
-11 18 15 33 11 67 -11 113 -24 49 -125 149 -151 149 -22 0 -11 30 17 45 40
21 97 45 109 45 6 0 11 5 11 10 0 6 9 10 19 10 11 0 21 3 23 8 2 4 21 19 43
34 22 15 53 39 69 53 16 14 34 25 40 25 17 0 153 146 168 180 9 21 20 30 36
30 12 0 30 4 40 9 35 18 93 41 102 41 6 0 19 9 30 20 11 11 27 20 35 20 8 0
15 5 15 10 0 6 6 10 13 10 25 0 87 75 94 113 5 30 1 40 -23 62 -27 25 -33 26
-109 22 -44 -3 -97 -8 -117 -12 -34 -7 -38 -5 -50 21 -17 39 -31 47 -40 23 -8
-20 -2 -98 7 -107 2 -3 24 1 49 7 63 16 206 15 206 -2 0 -25 -161 -144 -222
-164 -10 -3 -18 -9 -18 -14 0 -5 -7 -9 -15 -9 -16 0 -57 -37 -92 -83 -12 -15
-50 -59 -85 -98 -53 -59 -78 -78 -163 -120 -54 -27 -105 -49 -112 -49 -7 0
-13 -4 -13 -9 0 -5 -12 -11 -27 -14 -16 -3 -53 -13 -83 -22 -30 -9 -66 -19
-80 -22 -14 -2 -34 -8 -45 -13 -11 -5 -33 -11 -50 -15 -16 -3 -39 -8 -50 -10
-11 -2 -45 -7 -75 -11 -30 -4 -59 -10 -65 -14 -5 -3 -48 -8 -95 -9 -47 -2 -88
-5 -91 -7 -15 -9 -229 -14 -229 -5 0 5 -44 12 -97 14 -104 5 -209 19 -283 38
-43 10 -60 16 -112 39 -77 32 -105 40 -144 40 -67 0 -57 -39 14 -55 31 -6 41
-18 23 -29 -9 -6 -75 -18 -193 -35 -31 -5 -61 -12 -67 -15 -17 -11 -51 3 -51
21 0 24 65 82 99 89 17 4 31 10 31 14 0 9 -36 25 -85 39 -22 5 -51 14 -65 18
-14 4 -29 7 -35 8 -27 3 -93 18 -120 27 -126 43 -229 98 -184 98 6 0 23 8 37
19 36 25 79 31 269 34 89 2 165 5 168 9 25 24 -44 49 -177 64 -53 6 -58 8 -74
43 -23 46 -33 102 -44 226 -17 210 -18 198 10 205 14 3 31 18 38 34 12 23 18
26 43 21 l29 -7 2 54 c0 29 1 60 0 68 -3 27 24 135 48 195 18 45 42 101 52
122 8 17 8 26 -2 38 -17 20 -6 45 21 45 17 0 20 4 16 23 -7 26 16 53 118 142
90 78 138 109 273 176 56 28 75 50 54 63 -4 2 -9 22 -10 43 -2 21 -5 46 -8 55
-3 11 5 28 20 43 28 28 31 28 139 -6 31 -10 64 -16 71 -13 8 3 16 25 19 52 9
85 27 141 54 162 14 11 29 20 33 20 11 0 59 -48 100 -99 55 -68 58 -74 53 -88
-11 -27 28 -25 56 3 52 53 72 65 121 71 39 4 52 2 66 -12 24 -24 64 -104 64
-128 0 -29 29 -46 78 -47 23 0 50 -4 60 -9 9 -5 35 -14 57 -21 55 -17 104 -40
140 -64 17 -12 32 -20 35 -18 3 1 13 -5 23 -13 9 -8 19 -15 22 -15 3 0 38 -26
78 -59 72 -59 128 -115 159 -161 10 -14 33 -47 53 -75 41 -58 145 -266 150
-300 2 -10 10 -34 26 -73 5 -13 9 -38 9 -57 0 -19 4 -36 9 -39 5 -4 12 -41 16
-84 9 -93 20 -119 42 -101 12 11 14 31 9 118 -10 170 -13 193 -49 299 -14 42
-18 67 -12 76 43 58 65 100 65 125 0 17 5 42 12 56 9 19 9 28 0 37 -7 7 -12
24 -12 38 0 37 -54 114 -97 140 -56 33 -177 60 -216 49 -40 -11 -84 -12 -89
-1 -4 12 -123 92 -135 92 -6 0 -16 6 -22 14 -7 8 -49 28 -94 46 -45 18 -91 36
-102 40 -16 7 -100 22 -139 24 -12 1 -24 24 -36 73 -7 26 -26 59 -49 83 -35
37 -42 40 -93 40 -58 0 -103 -17 -133 -50 -18 -20 -45 -27 -45 -11 0 4 -18 35
-40 67 -60 89 -130 116 -197 74z m-246 -2342 c-3 -8 -6 -5 -6 6 -1 11 2 17 5
13 3 -3 4 -12 1 -19z m6 -105 c-7 -2 -19 -2 -25 0 -7 3 -2 5 12 5 14 0 19 -2
13 -5z m619 -40 c21 -14 38 -32 38 -39 0 -7 5 -16 11 -20 7 -4 10 -1 7 6 -2 8
3 21 13 31 9 9 21 25 27 34 5 10 18 19 28 20 11 0 25 4 32 9 7 4 12 2 12 -6 0
-7 9 -24 20 -38 11 -14 20 -41 20 -62 0 -49 15 -56 30 -15 18 45 92 114 128
119 53 8 68 -50 32 -124 -20 -41 -19 -58 3 -58 21 -1 60 -37 64 -60 2 -13 -2
-29 -9 -37 -6 -8 -12 -46 -13 -85 -1 -54 -5 -72 -18 -80 -9 -5 -17 -20 -17
-33 0 -29 -11 -32 -120 -39 -41 -3 -113 -8 -159 -12 l-84 -7 27 39 c14 21 26
46 26 56 0 9 5 20 10 23 12 8 13 142 1 149 -5 3 -12 18 -16 33 -8 34 -47 81
-94 113 -38 26 -44 28 -106 38 -32 6 -41 12 -43 31 -3 16 4 30 19 42 27 20 72
11 131 -28z m594 -29 c9 3 12 1 9 -4 -3 -6 -15 -10 -26 -10 -13 0 -19 7 -19
23 0 34 14 44 18 12 3 -19 8 -25 18 -21z m-149 4 c-3 -8 -6 -5 -6 6 -1 11 2
17 5 13 3 -3 4 -12 1 -19z m123 -44 c0 -8 -5 -12 -10 -9 -6 4 -8 11 -5 16 9
14 15 11 15 -7z m-935 -234 c-15 -87 -12 -116 17 -173 5 -11 8 -20 6 -22 -8
-8 -181 44 -196 58 -10 11 -15 30 -14 54 4 64 10 71 58 79 24 3 47 10 50 15 3
5 18 9 34 9 16 0 32 5 35 10 13 20 17 9 10 -30z m375 -16 c0 -8 -4 -12 -10 -9
-5 3 -10 13 -10 21 0 8 5 12 10 9 6 -3 10 -13 10 -21z m-290 -64 c0 -5 -5 -10
-11 -10 -5 0 -7 5 -4 10 3 6 8 10 11 10 2 0 4 -4 4 -10z"/>
<path d="M2437 2394 c-73 -53 -87 -83 -87 -185 0 -65 4 -90 15 -99 8 -7 15
-23 15 -37 0 -29 49 -104 99 -151 48 -45 92 -62 163 -62 67 0 99 15 138 63 23
29 25 38 23 127 -1 88 -4 100 -39 170 -25 51 -59 97 -105 143 -66 66 -68 67
-120 67 -46 0 -61 -6 -102 -36z m117 -197 c9 -14 4 -23 -34 -57 -49 -42 -60
-46 -78 -28 -38 38 23 111 87 104 8 0 19 -9 25 -19z"/>
<path d="M1445 2400 c-3 -5 -13 -10 -20 -10 -29 0 -94 -56 -133 -115 -56 -83
-82 -167 -84 -270 -2 -119 30 -197 100 -248 63 -46 123 -54 202 -27 33 11 65
20 73 20 17 0 68 53 99 105 38 61 61 182 53 268 -4 39 -11 78 -15 87 -4 8 -20
40 -34 71 -35 73 -58 92 -132 112 -69 19 -100 21 -109 7z m113 -269 c9 -5 29
-14 45 -22 21 -10 27 -19 27 -46 0 -30 -3 -33 -30 -33 -45 0 -120 38 -120 61
0 10 41 49 52 49 5 0 16 -4 26 -9z"/>
<path d="M3306 2333 c-6 -14 -5 -15 5 -6 7 7 10 15 7 18 -3 3 -9 -2 -12 -12z"/>
<path d="M2160 2112 c-14 -2 -40 -8 -57 -13 -27 -9 -33 -16 -33 -38 0 -57 111
-113 126 -63 3 9 10 25 15 34 5 10 9 31 9 47 0 31 -15 39 -60 33z"/>
<path d="M2330 1822 c-8 -3 -26 -13 -40 -22 -48 -33 -121 -50 -211 -50 -97 0
-122 7 -161 44 -25 24 -28 25 -57 10 -42 -21 -71 -66 -100 -154 -13 -43 -12
-160 2 -177 36 -47 214 44 255 131 5 11 15 35 22 53 12 33 32 43 93 43 20 0
45 4 55 9 9 4 43 21 74 36 58 28 106 69 91 78 -4 2 -15 2 -23 -1z m-440 -72
c0 -5 -8 -24 -18 -42 -37 -65 -34 -116 6 -104 14 5 24 19 28 41 8 43 25 58 58
49 50 -12 20 -70 -68 -128 -76 -50 -86 -48 -86 18 0 30 5 58 10 61 6 3 10 16
10 27 0 12 10 37 23 55 22 33 37 42 37 23z"/>
</g>
</svg>
